# Blender v2.91.0 OBJ File: 'caillou2.blend'
# www.blender.org
mtllib caillou2.mtl
o Caillou_2_Icosphere.005
v 0.208860 -0.895723 -0.155365
v -0.461376 -0.470806 0.721783
v -0.681570 -0.631786 0.009843
v 0.462159 0.470874 -0.702098
v 0.682353 0.631854 0.009843
v -0.208077 0.895791 -0.155365
v 0.019330 -0.655090 0.741729
v 0.640180 -0.660264 0.221237
v -0.461376 -0.470806 -0.702098
v 0.019330 -0.655090 -0.722044
v 0.749355 -0.147122 0.613265
v -0.282400 -0.047857 0.979178
v -0.807092 0.216448 -0.428236
v 0.749355 -0.147122 -0.593580
v -0.282400 -0.047857 -0.959493
v 0.462159 0.470874 0.721783
v -0.018548 0.655158 0.741729
v -0.775343 0.482633 0.373055
v -0.018548 0.655158 -0.722044
vt 0.818181 0.000000
vt 0.772726 0.078731
vt 0.839793 0.120027
vt 0.090909 0.000000
vt 0.045454 0.078731
vt 0.158695 0.117411
vt 0.272727 0.000000
vt 0.204941 0.117411
vt 0.318182 0.078731
vt 0.909090 0.157461
vt 0.907358 0.236191
vt 0.043720 0.157461
vt 0.136341 0.316202
vt 0.250168 0.275848
vt 0.205047 0.432147
vt 0.613240 0.354971
vt 0.500000 0.393651
vt 0.545454 0.472382
vt 0.498265 0.314921
vt 0.385248 0.352355
vt 0.340407 0.432147
vt 0.976914 0.354907
vt 0.887478 0.352355
vt 0.909090 0.472382
vt 0.772726 0.393651
vt 0.659486 0.354971
vt 0.727272 0.472382
vt 0.774461 0.314921
vt 0.543570 0.210786
vt 0.365368 0.236191
vt 0.729156 0.210786
vt 0.432933 0.120027
vt 0.319916 0.157461
vt 0.045454 0.236191
vt 0.659678 0.117079
vt 0.477774 0.040235
vt 0.613134 0.040235
vn 0.2429 -0.9229 0.2989
vn -0.2435 -0.9484 0.2030
vn -0.3200 -0.9058 -0.2776
vn -0.2062 -0.4435 0.8722
vn -0.9263 -0.1849 0.3283
vn -0.9913 -0.1079 0.0751
vn -0.6927 0.6922 -0.2025
vn 0.3200 0.9058 -0.2776
vn 0.3516 0.8838 -0.3086
vn -0.5563 0.6815 -0.4755
vn -0.3528 0.8824 0.3112
vn 0.2435 0.9484 0.2030
vn 0.3516 0.8838 0.3086
vn 0.8722 0.3443 -0.3476
vn 0.1424 0.2683 -0.9527
vn -0.5186 0.4419 -0.7320
vn -0.4725 0.4360 0.7659
vn 0.1424 0.2683 0.9527
vn 0.8722 0.3443 0.3476
vn 0.3333 -0.0106 -0.9428
vn 0.3089 -0.2093 -0.9278
vn -0.2062 -0.4435 -0.8722
vn -0.7323 -0.1000 -0.6735
vn -0.8867 -0.3089 -0.3441
vn -0.7909 -0.0370 0.6108
vn 0.3333 -0.0106 0.9428
vn 0.3089 -0.2093 0.9278
vn 0.9963 0.0857 0.0000
vn 0.9781 -0.2081 -0.0000
vn 0.5573 -0.6807 -0.4754
vn -0.3516 -0.8838 -0.3086
vn -0.3516 -0.8838 0.3086
vn 0.6598 -0.6726 -0.3352
vn 0.5176 -0.5862 0.6232
usemtl Caillou
s off
f 1/1/1 8/2/1 7/3/1
f 1/4/2 7/5/2 3/6/2
f 1/7/3 3/8/3 10/9/3
f 2/10/4 7/3/4 12/11/4
f 3/6/5 2/12/5 18/13/5
f 3/6/6 18/13/6 13/14/6
f 13/14/7 18/13/7 6/15/7
f 5/16/8 19/17/8 6/18/8
f 5/16/9 4/19/9 19/17/9
f 19/20/10 13/14/10 6/21/10
f 18/22/11 17/23/11 6/24/11
f 17/25/12 5/26/12 6/27/12
f 17/25/13 16/28/13 5/26/13
f 14/29/14 4/19/14 5/26/14
f 15/30/15 19/20/15 4/19/15
f 15/30/16 13/14/16 19/20/16
f 12/11/17 17/23/17 18/22/17
f 12/11/18 16/28/18 17/23/18
f 11/31/19 5/26/19 16/28/19
f 14/29/20 15/30/20 4/19/20
f 14/29/21 10/32/21 15/30/21
f 10/32/22 9/33/22 15/30/22
f 15/30/23 9/33/23 13/14/23
f 9/33/24 3/6/24 13/14/24
f 18/13/25 2/12/25 12/34/25
f 12/11/26 11/31/26 16/28/26
f 12/11/27 7/3/27 11/31/27
f 11/31/28 14/29/28 5/26/28
f 11/31/29 8/35/29 14/29/29
f 1/36/30 10/32/30 14/29/30
f 10/9/31 3/8/31 9/33/31
f 3/6/32 7/5/32 2/12/32
f 8/35/33 1/37/33 14/29/33
f 8/2/34 11/31/34 7/3/34
o Cube_Cube.001
v -1.000000 -1.000000 1.000000
v -1.000000 1.000000 1.000000
v -1.000000 -1.000000 -1.000000
v -1.000000 1.000000 -1.000000
v 1.000000 -1.000000 1.000000
v 1.000000 1.000000 1.000000
v 1.000000 -1.000000 -1.000000
v 1.000000 1.000000 -1.000000
vt 0.375000 0.000000
vt 0.625000 0.000000
vt 0.625000 0.250000
vt 0.375000 0.250000
vt 0.625000 0.500000
vt 0.375000 0.500000
vt 0.625000 0.750000
vt 0.375000 0.750000
vt 0.625000 1.000000
vt 0.375000 1.000000
vt 0.125000 0.500000
vt 0.125000 0.750000
vt 0.875000 0.500000
vt 0.875000 0.750000
vn -1.0000 0.0000 0.0000
vn 0.0000 0.0000 -1.0000
vn 1.0000 0.0000 0.0000
vn 0.0000 0.0000 1.0000
vn 0.0000 -1.0000 0.0000
vn 0.0000 1.0000 0.0000
usemtl None
s off
f 20/38/35 21/39/35 23/40/35 22/41/35
f 22/41/36 23/40/36 27/42/36 26/43/36
f 26/43/37 27/42/37 25/44/37 24/45/37
f 24/45/38 25/44/38 21/46/38 20/47/38
f 22/48/39 26/43/39 24/45/39 20/49/39
f 27/42/40 23/50/40 21/51/40 25/44/40
