# Blender v2.91.0 OBJ File: ''
# www.blender.org
mtllib herbe.mtl
o Herbe_Cone.004
v -0.108490 -0.500905 0.297437
v 0.017615 -0.500905 0.515857
v -0.234594 -0.500905 0.515857
v -0.108490 0.275492 0.550572
vt 0.250000 0.490000
vt 0.250000 0.250000
vt 0.457846 0.130000
vt 0.750000 0.490000
vt 0.957846 0.130000
vt 0.542154 0.130000
vt 0.042154 0.130000
vn 0.8547 0.1609 -0.4935
vn 0.0000 -1.0000 0.0000
vn 0.0000 -0.0447 0.9990
vn -0.8547 0.1609 -0.4935
usemtl Herbe.002
s off
f 1/1/1 4/2/1 2/3/1
f 1/4/2 2/5/2 3/6/2
f 2/3/3 4/2/3 3/7/3
f 3/7/4 4/2/4 1/1/4
o Cone.001_Cone.005
v -0.222195 -0.502021 -0.001527
v -0.006711 -0.502021 -0.022183
v -0.096564 -0.502021 0.174759
v -0.052843 0.447650 0.037164
vt 0.250000 0.490000
vt 0.250000 0.250000
vt 0.457846 0.130000
vt 0.750000 0.490000
vt 0.957846 0.130000
vt 0.542154 0.130000
vt 0.042154 0.130000
vn -0.0953 0.0575 -0.9938
vn 0.0000 -1.0000 0.0000
vn 0.9096 0.0183 0.4150
vn -0.8084 0.1207 0.5761
usemtl Herbe.003
s off
f 5/8/5 8/9/5 6/10/5
f 5/11/6 6/12/6 7/13/6
f 6/10/7 8/9/7 7/14/7
f 7/14/8 8/9/8 5/8/8
o Cone.002_Cone.006
v -0.412358 -0.501189 0.164561
v -0.133978 -0.501189 0.137876
v -0.250058 -0.501189 0.392303
v -0.295516 0.597762 0.214545
vt 0.250000 0.490000
vt 0.250000 0.250000
vt 0.457846 0.130000
vt 0.750000 0.490000
vt 0.957846 0.130000
vt 0.542154 0.130000
vt 0.042154 0.130000
vn -0.0953 0.0553 -0.9939
vn 0.0000 -1.0000 0.0000
vn 0.9048 0.1042 0.4128
vn -0.8129 0.0601 0.5793
usemtl Herbe.004
s off
f 9/15/9 12/16/9 10/17/9
f 9/18/10 10/19/10 11/20/10
f 10/17/11 12/16/11 11/21/11
f 11/21/12 12/16/12 9/15/12
o Cone.003_Cone.007
v -0.054332 -0.503872 0.196245
v 0.092442 -0.503872 0.182175
v 0.031240 -0.503872 0.316320
v 0.042643 -0.158662 0.222599
vt 0.250000 0.490000
vt 0.250000 0.250000
vt 0.457846 0.130000
vt 0.750000 0.490000
vt 0.957846 0.130000
vt 0.542154 0.130000
vt 0.042154 0.130000
vn -0.0949 0.1023 -0.9902
vn 0.0000 -1.0000 0.0000
vn 0.9067 0.0824 0.4137
vn -0.8009 0.1814 0.5707
usemtl Herbe.007
s off
f 13/22/13 16/23/13 14/24/13
f 13/25/14 14/26/14 15/27/14
f 14/24/15 16/23/15 15/28/15
f 15/28/16 16/23/16 13/22/16
o Cone.004_Cone.008
v 0.120696 -0.501189 0.110743
v 0.296809 -0.501189 0.267745
v 0.072785 -0.501189 0.341763
v 0.161978 0.455763 0.217366
vt 0.250000 0.490000
vt 0.250000 0.250000
vt 0.457846 0.130000
vt 0.750000 0.490000
vt 0.957846 0.130000
vt 0.542154 0.130000
vt 0.042154 0.130000
vn 0.6645 0.0544 -0.7453
vn 0.0000 -1.0000 0.0000
vn 0.3123 0.0938 0.9453
vn -0.9771 0.0647 -0.2026
usemtl Herbe.006
s off
f 17/29/17 20/30/17 18/31/17
f 17/32/18 18/33/18 19/34/18
f 18/31/19 20/30/19 19/35/19
f 19/35/20 20/30/20 17/29/20
o Herbe.001_Cone.001
v -1.065983 -0.500905 0.774987
v -0.939879 -0.500905 0.993406
v -1.192088 -0.500905 0.993406
v -1.065983 0.275492 1.028121
vt 0.250000 0.490000
vt 0.250000 0.250000
vt 0.457846 0.130000
vt 0.750000 0.490000
vt 0.957846 0.130000
vt 0.542154 0.130000
vt 0.042154 0.130000
vn 0.8547 0.1609 -0.4935
vn 0.0000 -1.0000 0.0000
vn 0.0000 -0.0447 0.9990
vn -0.8547 0.1609 -0.4935
usemtl Herbe.001
s off
f 21/36/21 24/37/21 22/38/21
f 21/39/22 22/40/22 23/41/22
f 22/38/23 24/37/23 23/42/23
f 23/42/24 24/37/24 21/36/24
o Cone.005_Cone.002
v -1.179688 -0.502021 0.476022
v -0.964204 -0.502021 0.455366
v -1.054057 -0.502021 0.652309
v -1.010336 0.447650 0.514713
vt 0.250000 0.490000
vt 0.250000 0.250000
vt 0.457846 0.130000
vt 0.750000 0.490000
vt 0.957846 0.130000
vt 0.542154 0.130000
vt 0.042154 0.130000
vn -0.0953 0.0575 -0.9938
vn 0.0000 -1.0000 0.0000
vn 0.9096 0.0183 0.4150
vn -0.8084 0.1207 0.5761
usemtl Herbe.002
s off
f 25/43/25 28/44/25 26/45/25
f 25/46/26 26/47/26 27/48/26
f 26/45/27 28/44/27 27/49/27
f 27/49/28 28/44/28 25/43/28
o Cone.006_Cone.003
v -1.369852 -0.501189 0.642111
v -1.091471 -0.501189 0.615425
v -1.207551 -0.501189 0.869853
v -1.253009 0.597762 0.692094
vt 0.250000 0.490000
vt 0.250000 0.250000
vt 0.457846 0.130000
vt 0.750000 0.490000
vt 0.957846 0.130000
vt 0.542154 0.130000
vt 0.042154 0.130000
vn -0.0953 0.0553 -0.9939
vn 0.0000 -1.0000 -0.0000
vn 0.9048 0.1042 0.4128
vn -0.8129 0.0601 0.5793
usemtl Herbe.004
s off
f 29/50/29 32/51/29 30/52/29
f 29/53/30 30/54/30 31/55/30
f 30/52/31 32/51/31 31/56/31
f 31/56/32 32/51/32 29/50/32
o Cone.007_Cone.009
v -1.011825 -0.503872 0.673794
v -0.865051 -0.503872 0.659725
v -0.926254 -0.503872 0.793870
v -0.914850 -0.158662 0.700148
vt 0.250000 0.490000
vt 0.250000 0.250000
vt 0.457846 0.130000
vt 0.750000 0.490000
vt 0.957846 0.130000
vt 0.542154 0.130000
vt 0.042154 0.130000
vn -0.0949 0.1023 -0.9902
vn 0.0000 -1.0000 0.0000
vn 0.9067 0.0824 0.4137
vn -0.8009 0.1814 0.5707
usemtl Herbe.005
s off
f 33/57/33 36/58/33 34/59/33
f 33/60/34 34/61/34 35/62/34
f 34/59/35 36/58/35 35/63/35
f 35/63/36 36/58/36 33/57/36
o Cone.008_Cone.010
v -0.836798 -0.501189 0.588293
v -0.660684 -0.501189 0.745294
v -0.884708 -0.501189 0.819312
v -0.795516 0.455763 0.694916
vt 0.250000 0.490000
vt 0.250000 0.250000
vt 0.457846 0.130000
vt 0.750000 0.490000
vt 0.957846 0.130000
vt 0.542154 0.130000
vt 0.042154 0.130000
vn 0.6645 0.0544 -0.7453
vn 0.0000 -1.0000 0.0000
vn 0.3123 0.0938 0.9453
vn -0.9771 0.0647 -0.2026
usemtl Herbe.006
s off
f 37/64/37 40/65/37 38/66/37
f 37/67/38 38/68/38 39/69/38
f 38/66/39 40/65/39 39/70/39
f 39/70/40 40/65/40 37/64/40
o Herbe.002_Cone.011
v -1.065983 -0.500905 -0.732192
v -0.939879 -0.500905 -0.513772
v -1.192088 -0.500905 -0.513772
v -1.065983 0.275492 -0.479057
vt 0.250000 0.490000
vt 0.250000 0.250000
vt 0.457846 0.130000
vt 0.750000 0.490000
vt 0.957846 0.130000
vt 0.542154 0.130000
vt 0.042154 0.130000
vn 0.8547 0.1609 -0.4935
vn 0.0000 -1.0000 0.0000
vn 0.0000 -0.0447 0.9990
vn -0.8547 0.1609 -0.4935
usemtl Herbe.001
s off
f 41/71/41 44/72/41 42/73/41
f 41/74/42 42/75/42 43/76/42
f 42/73/43 44/72/43 43/77/43
f 43/77/44 44/72/44 41/71/44
o Cone.009_Cone.012
v -1.179688 -0.502021 -1.031156
v -0.964204 -0.502021 -1.051812
v -1.054058 -0.502021 -0.854870
v -1.010337 0.447650 -0.992465
vt 0.250000 0.490000
vt 0.250000 0.250000
vt 0.457846 0.130000
vt 0.750000 0.490000
vt 0.957846 0.130000
vt 0.542154 0.130000
vt 0.042154 0.130000
vn -0.0953 0.0575 -0.9938
vn 0.0000 -1.0000 0.0000
vn 0.9096 0.0183 0.4150
vn -0.8084 0.1207 0.5761
usemtl Herbe.003
s off
f 45/78/45 48/79/45 46/80/45
f 45/81/46 46/82/46 47/83/46
f 46/80/47 48/79/47 47/84/47
f 47/84/48 48/79/48 45/78/48
o Cone.010_Cone.013
v -1.369852 -0.501189 -0.865068
v -1.091471 -0.501189 -0.891753
v -1.207551 -0.501189 -0.637326
v -1.253009 0.597762 -0.815084
vt 0.250000 0.490000
vt 0.250000 0.250000
vt 0.457846 0.130000
vt 0.750000 0.490000
vt 0.957846 0.130000
vt 0.542154 0.130000
vt 0.042154 0.130000
vn -0.0953 0.0553 -0.9939
vn 0.0000 -1.0000 -0.0000
vn 0.9048 0.1042 0.4128
vn -0.8129 0.0601 0.5793
usemtl Herbe.002
s off
f 49/85/49 52/86/49 50/87/49
f 49/88/50 50/89/50 51/90/50
f 50/87/51 52/86/51 51/91/51
f 51/91/52 52/86/52 49/85/52
o Cone.011_Cone.014
v -1.011825 -0.503872 -0.833384
v -0.865051 -0.503872 -0.847454
v -0.926254 -0.503872 -0.713309
v -0.914850 -0.158662 -0.807030
vt 0.250000 0.490000
vt 0.250000 0.250000
vt 0.457846 0.130000
vt 0.750000 0.490000
vt 0.957846 0.130000
vt 0.542154 0.130000
vt 0.042154 0.130000
vn -0.0949 0.1023 -0.9902
vn 0.0000 -1.0000 0.0000
vn 0.9067 0.0824 0.4137
vn -0.8009 0.1814 0.5707
usemtl Herbe.005
s off
f 53/92/53 56/93/53 54/94/53
f 53/95/54 54/96/54 55/97/54
f 54/94/55 56/93/55 55/98/55
f 55/98/56 56/93/56 53/92/56
o Cone.012_Cone.015
v -0.836798 -0.501189 -0.918886
v -0.660684 -0.501189 -0.761884
v -0.884708 -0.501189 -0.687866
v -0.795516 0.455763 -0.812263
vt 0.250000 0.490000
vt 0.250000 0.250000
vt 0.457846 0.130000
vt 0.750000 0.490000
vt 0.957846 0.130000
vt 0.542154 0.130000
vt 0.042154 0.130000
vn 0.6645 0.0544 -0.7453
vn 0.0000 -1.0000 0.0000
vn 0.3123 0.0938 0.9453
vn -0.9771 0.0647 -0.2026
usemtl Herbe.006
s off
f 57/99/57 60/100/57 58/101/57
f 57/102/58 58/103/58 59/104/58
f 58/101/59 60/100/59 59/105/59
f 59/105/60 60/100/60 57/99/60
o Herbe.003_Cone.016
v 1.024177 -0.500905 -0.088860
v 1.150282 -0.500905 0.129560
v 0.898073 -0.500905 0.129560
v 1.024177 0.275492 0.164274
vt 0.250000 0.490000
vt 0.250000 0.250000
vt 0.457846 0.130000
vt 0.750000 0.490000
vt 0.957846 0.130000
vt 0.542154 0.130000
vt 0.042154 0.130000
vn 0.8547 0.1609 -0.4935
vn 0.0000 -1.0000 0.0000
vn 0.0000 -0.0447 0.9990
vn -0.8547 0.1609 -0.4935
usemtl Herbe.001
s off
f 61/106/61 64/107/61 62/108/61
f 61/109/62 62/110/62 63/111/62
f 62/108/63 64/107/63 63/112/63
f 63/112/64 64/107/64 61/106/64
o Cone.013_Cone.017
v 0.910473 -0.502021 -0.387824
v 1.125956 -0.502021 -0.408480
v 1.036103 -0.502021 -0.211538
v 1.079824 0.447650 -0.349134
vt 0.250000 0.490000
vt 0.250000 0.250000
vt 0.457846 0.130000
vt 0.750000 0.490000
vt 0.957846 0.130000
vt 0.542154 0.130000
vt 0.042154 0.130000
vn -0.0953 0.0575 -0.9938
vn 0.0000 -1.0000 0.0000
vn 0.9096 0.0183 0.4150
vn -0.8084 0.1207 0.5761
usemtl Herbe.002
s off
f 65/113/65 68/114/65 66/115/65
f 65/116/66 66/117/66 67/118/66
f 66/115/67 68/114/67 67/119/67
f 67/119/68 68/114/68 65/113/68
o Cone.014_Cone.018
v 0.720309 -0.501189 -0.221736
v 0.998689 -0.501189 -0.248421
v 0.882609 -0.501189 0.006006
v 0.837152 0.597762 -0.171752
vt 0.250000 0.490000
vt 0.250000 0.250000
vt 0.457846 0.130000
vt 0.750000 0.490000
vt 0.957846 0.130000
vt 0.542154 0.130000
vt 0.042154 0.130000
vn -0.0953 0.0553 -0.9939
vn 0.0000 -1.0000 -0.0000
vn 0.9048 0.1042 0.4128
vn -0.8129 0.0601 0.5793
usemtl Herbe.004
s off
f 69/120/69 72/121/69 70/122/69
f 69/123/70 70/124/70 71/125/70
f 70/122/71 72/121/71 71/126/71
f 71/126/72 72/121/72 69/120/72
o Cone.015_Cone.019
v 1.078335 -0.503872 -0.190052
v 1.225109 -0.503872 -0.204122
v 1.163907 -0.503872 -0.069977
v 1.175310 -0.158662 -0.163699
vt 0.250000 0.490000
vt 0.250000 0.250000
vt 0.457846 0.130000
vt 0.750000 0.490000
vt 0.957846 0.130000
vt 0.542154 0.130000
vt 0.042154 0.130000
vn -0.0949 0.1023 -0.9902
vn 0.0000 -1.0000 0.0000
vn 0.9067 0.0824 0.4137
vn -0.8009 0.1814 0.5707
usemtl Herbe.005
s off
f 73/127/73 76/128/73 74/129/73
f 73/130/74 74/131/74 75/132/74
f 74/129/75 76/128/75 75/133/75
f 75/133/76 76/128/76 73/127/76
o Cone.016_Cone.020
v 1.253363 -0.501189 -0.275554
v 1.429476 -0.501189 -0.118553
v 1.205453 -0.501189 -0.044534
v 1.294645 0.455763 -0.168931
vt 0.250000 0.490000
vt 0.250000 0.250000
vt 0.457846 0.130000
vt 0.750000 0.490000
vt 0.957846 0.130000
vt 0.542154 0.130000
vt 0.042154 0.130000
vn 0.6645 0.0544 -0.7453
vn 0.0000 -1.0000 0.0000
vn 0.3123 0.0938 0.9453
vn -0.9771 0.0647 -0.2026
usemtl Herbe.002
s off
f 77/134/77 80/135/77 78/136/77
f 77/137/78 78/138/78 79/139/78
f 78/136/79 80/135/79 79/140/79
f 79/140/80 80/135/80 77/134/80
o Herbe.004_Cone.021
v 0.128891 -0.500905 -0.702045
v 0.254996 -0.500905 -0.483626
v 0.002786 -0.500905 -0.483626
v 0.128891 0.275492 -0.448911
vt 0.250000 0.490000
vt 0.250000 0.250000
vt 0.457846 0.130000
vt 0.750000 0.490000
vt 0.957846 0.130000
vt 0.542154 0.130000
vt 0.042154 0.130000
vn 0.8547 0.1609 -0.4935
vn 0.0000 -1.0000 0.0000
vn 0.0000 -0.0447 0.9990
vn -0.8547 0.1609 -0.4935
usemtl Herbe.002
s off
f 81/141/81 84/142/81 82/143/81
f 81/144/82 82/145/82 83/146/82
f 82/143/83 84/142/83 83/147/83
f 83/147/84 84/142/84 81/141/84
o Cone.017_Cone.022
v 0.015186 -0.502021 -1.001009
v 0.230670 -0.502021 -1.021665
v 0.140817 -0.502021 -0.824723
v 0.184538 0.447650 -0.962319
vt 0.250000 0.490000
vt 0.250000 0.250000
vt 0.457846 0.130000
vt 0.750000 0.490000
vt 0.957846 0.130000
vt 0.542154 0.130000
vt 0.042154 0.130000
vn -0.0953 0.0575 -0.9938
vn 0.0000 -1.0000 0.0000
vn 0.9096 0.0183 0.4150
vn -0.8084 0.1207 0.5761
usemtl Herbe.003
s off
f 85/148/85 88/149/85 86/150/85
f 85/151/86 86/152/86 87/153/86
f 86/150/87 88/149/87 87/154/87
f 87/154/88 88/149/88 85/148/88
o Cone.018_Cone.023
v -0.174978 -0.501189 -0.834921
v 0.103403 -0.501189 -0.861606
v -0.012677 -0.501189 -0.607179
v -0.058135 0.597762 -0.784937
vt 0.250000 0.490000
vt 0.250000 0.250000
vt 0.457846 0.130000
vt 0.750000 0.490000
vt 0.957846 0.130000
vt 0.542154 0.130000
vt 0.042154 0.130000
vn -0.0953 0.0553 -0.9939
vn 0.0000 -1.0000 -0.0000
vn 0.9048 0.1042 0.4128
vn -0.8129 0.0601 0.5793
usemtl Herbe.004
s off
f 89/155/89 92/156/89 90/157/89
f 89/158/90 90/159/90 91/160/90
f 90/157/91 92/156/91 91/161/91
f 91/161/92 92/156/92 89/155/92
o Cone.019_Cone.024
v 0.183049 -0.503872 -0.803237
v 0.329823 -0.503872 -0.817307
v 0.268621 -0.503872 -0.683162
v 0.280024 -0.158662 -0.776884
vt 0.250000 0.490000
vt 0.250000 0.250000
vt 0.457846 0.130000
vt 0.750000 0.490000
vt 0.957846 0.130000
vt 0.542154 0.130000
vt 0.042154 0.130000
vn -0.0949 0.1023 -0.9902
vn 0.0000 -1.0000 0.0000
vn 0.9067 0.0824 0.4137
vn -0.8009 0.1814 0.5707
usemtl Herbe.005
s off
f 93/162/93 96/163/93 94/164/93
f 93/165/94 94/166/94 95/167/94
f 94/164/95 96/163/95 95/168/95
f 95/168/96 96/163/96 93/162/96
o Cone.020_Cone.025
v 0.358076 -0.501189 -0.888739
v 0.534190 -0.501189 -0.731738
v 0.310166 -0.501189 -0.657719
v 0.399358 0.455763 -0.782116
vt 0.250000 0.490000
vt 0.250000 0.250000
vt 0.457846 0.130000
vt 0.750000 0.490000
vt 0.957846 0.130000
vt 0.542154 0.130000
vt 0.042154 0.130000
vn 0.6645 0.0544 -0.7453
vn 0.0000 -1.0000 0.0000
vn 0.3123 0.0938 0.9453
vn -0.9771 0.0647 -0.2026
usemtl Herbe.007
s off
f 97/169/97 100/170/97 98/171/97
f 97/172/98 98/173/98 99/174/98
f 98/171/99 100/170/99 99/175/99
f 99/175/100 100/170/100 97/169/100
